HIERARCHY
ROOT Hips
{
	OFFSET 0.000000 35.082581 0.000000
	CHANNELS 6 Xposition Yposition Zposition Xrotation Yrotation Zrotation 
	JOINT Spine
	{
		OFFSET 0.000000 6.876099 0.125700
		CHANNELS 3 Xrotation Yrotation Zrotation
		JOINT Spine1
		{
			OFFSET 0.000000 5.730043 0.104720
			CHANNELS 3 Xrotation Yrotation Zrotation
			JOINT Spine1_split
			{
				OFFSET 0.000000 5.730043 0.104720
				CHANNELS 3 Xrotation Yrotation Zrotation
				JOINT Spine2
				{
					OFFSET 0.000000 5.730043 0.104720
					CHANNELS 3 Xrotation Yrotation Zrotation
					JOINT Neck
					{
						OFFSET 0.000000 10.314075 0.188496
						CHANNELS 3 Xrotation Yrotation Zrotation
						JOINT Head
						{
							OFFSET 0.000000 7.643700 -2.377400
							CHANNELS 3 Xrotation Yrotation Zrotation
							JOINT HeadTop_End
							{
								OFFSET 0.000000 43.788605 -13.619600
								CHANNELS 3 Xrotation Yrotation Zrotation
								End Site
								{
									OFFSET 0.000000 0.000000 0.000000
								}
							}
						}
					}
					JOINT LeftShoulder
					{
						OFFSET 2.196100 4.412489 0.087492
						CHANNELS 3 Xrotation Yrotation Zrotation
						JOINT LeftShoulder_split
						{
							OFFSET 2.196100 4.412489 0.087492
							CHANNELS 3 Xrotation Yrotation Zrotation
							JOINT LeftArm
							{
								OFFSET 8.771219 -2.981674 -0.026999
								CHANNELS 3 Xrotation Yrotation Zrotation
								JOINT LeftForeArm
								{
									OFFSET 8.512804 0.000000 -0.000000
									CHANNELS 3 Xrotation Yrotation Zrotation
									JOINT LeftHand
									{
										OFFSET 18.484802 0.000000 -0.000000
										CHANNELS 3 Xrotation Yrotation Zrotation
										JOINT LeftHandThumb1
										{
											OFFSET 2.499420 -1.158070 2.653252
											CHANNELS 3 Xrotation Yrotation Zrotation
											JOINT LeftHandThumb2
											{
												OFFSET 2.370079 -1.368366 1.368366
												CHANNELS 3 Xrotation Yrotation Zrotation
												JOINT LeftHandThumb3
												{
													OFFSET 2.676727 -1.545410 1.545409
													CHANNELS 3 Xrotation Yrotation Zrotation
													JOINT LeftHandThumb4
													{
														OFFSET 1.692226 -0.977005 0.977007
														CHANNELS 3 Xrotation Yrotation Zrotation
														End Site
														{
															OFFSET 0.000000 0.000000 0.000000
														}
													}
												}
											}
										}
										JOINT LeftHandIndex1
										{
											OFFSET 7.924831 -0.457527 2.345128
											CHANNELS 3 Xrotation Yrotation Zrotation
											JOINT LeftHandIndex2
											{
												OFFSET 3.643303 0.000000 0.000000
												CHANNELS 3 Xrotation Yrotation Zrotation
												JOINT LeftHandIndex3
												{
													OFFSET 3.810799 0.000000 0.000000
													CHANNELS 3 Xrotation Yrotation Zrotation
													JOINT LeftHandIndex4
													{
														OFFSET 2.403702 0.000000 0.000000
														CHANNELS 3 Xrotation Yrotation Zrotation
														End Site
														{
															OFFSET 0.000000 0.000000 0.000000
														}
													}
												}
											}
										}
										JOINT LeftHandMiddle1
										{
											OFFSET 8.563995 0.000000 -0.000000
											CHANNELS 3 Xrotation Yrotation Zrotation
											JOINT LeftHandMiddle2
											{
												OFFSET 3.861618 0.000000 0.000000
												CHANNELS 3 Xrotation Yrotation Zrotation
												JOINT LeftHandMiddle3
												{
													OFFSET 3.701603 0.000000 0.000000
													CHANNELS 3 Xrotation Yrotation Zrotation
													JOINT LeftHandMiddle4
													{
														OFFSET 2.322544 0.000000 0.000000
														CHANNELS 3 Xrotation Yrotation Zrotation
														End Site
														{
															OFFSET 0.000000 0.000000 0.000000
														}
													}
												}
											}
										}
										JOINT LeftHandRing1
										{
											OFFSET 8.426460 -0.424637 -3.286992
											CHANNELS 3 Xrotation Yrotation Zrotation
											JOINT LeftHandRing2
											{
												OFFSET 3.126408 0.000000 0.000000
												CHANNELS 3 Xrotation Yrotation Zrotation
												JOINT LeftHandRing3
												{
													OFFSET 3.085026 0.000000 0.000000
													CHANNELS 3 Xrotation Yrotation Zrotation
													JOINT LeftHandRing4
													{
														OFFSET 1.644005 0.000000 0.000000
														CHANNELS 3 Xrotation Yrotation Zrotation
														End Site
														{
															OFFSET 0.000000 0.000000 0.000000
														}
													}
												}
											}
										}
									}
								}
							}
						}
					}
					JOINT RightShoulder
					{
						OFFSET -2.196100 4.412496 0.070690
						CHANNELS 3 Xrotation Yrotation Zrotation
						JOINT RightShoulder_split
						{
							OFFSET -2.196100 4.412496 0.070690
							CHANNELS 3 Xrotation Yrotation Zrotation
							JOINT RightArm
							{
								OFFSET -8.771282 -2.981682 -0.094208
								CHANNELS 3 Xrotation Yrotation Zrotation
								JOINT RightForeArm
								{
									OFFSET -8.494598 0.000000 0.000000
									CHANNELS 3 Xrotation Yrotation Zrotation
									JOINT RightHand
									{
										OFFSET -18.483803 0.000000 0.000001
										CHANNELS 3 Xrotation Yrotation Zrotation
										JOINT RightHandThumb1
										{
											OFFSET -2.527351 -1.008072 2.575253
											CHANNELS 3 Xrotation Yrotation Zrotation
											JOINT RightHandThumb2
											{
												OFFSET -2.321518 -1.340328 1.340329
												CHANNELS 3 Xrotation Yrotation Zrotation
												JOINT RightHandThumb3
												{
													OFFSET -2.657753 -1.534454 1.534455
													CHANNELS 3 Xrotation Yrotation Zrotation
													JOINT RightHandThumb4
													{
														OFFSET -1.807510 -1.043568 1.043567
														CHANNELS 3 Xrotation Yrotation Zrotation
														End Site
														{
															OFFSET 0.000000 0.000000 0.000000
														}
													}
												}
											}
										}
										JOINT RightHandIndex1
										{
											OFFSET -8.811420 0.015533 2.887987
											CHANNELS 3 Xrotation Yrotation Zrotation
											JOINT RightHandIndex2
											{
												OFFSET -3.537502 0.000000 0.000000
												CHANNELS 3 Xrotation Yrotation Zrotation
												JOINT RightHandIndex3
												{
													OFFSET -3.356201 0.000000 0.000000
													CHANNELS 3 Xrotation Yrotation Zrotation
													JOINT RightHandIndex4
													{
														OFFSET -1.933098 0.000000 0.000000
														CHANNELS 3 Xrotation Yrotation Zrotation
														End Site
														{
															OFFSET 0.000000 0.000000 0.000000
														}
													}
												}
											}
										}
										JOINT RightHandMiddle1
										{
											OFFSET -8.178135 0.000000 0.000000
											CHANNELS 3 Xrotation Yrotation Zrotation
											JOINT RightHandMiddle2
											{
												OFFSET -3.901302 0.000000 0.000000
												CHANNELS 3 Xrotation Yrotation Zrotation
												JOINT RightHandMiddle3
												{
													OFFSET -3.909599 0.000000 0.000000
													CHANNELS 3 Xrotation Yrotation Zrotation
													JOINT RightHandMiddle4
													{
														OFFSET -2.376003 0.000000 0.000000
														CHANNELS 3 Xrotation Yrotation Zrotation
														End Site
														{
															OFFSET 0.000000 0.000000 0.000000
														}
													}
												}
											}
										}
										JOINT RightHandRing1
										{
											OFFSET -7.559013 0.014137 -2.865403
											CHANNELS 3 Xrotation Yrotation Zrotation
											JOINT RightHandRing2
											{
												OFFSET -3.449306 0.000000 0.000000
												CHANNELS 3 Xrotation Yrotation Zrotation
												JOINT RightHandRing3
												{
													OFFSET -3.362106 0.000000 0.000000
													CHANNELS 3 Xrotation Yrotation Zrotation
													JOINT RightHandRing4
													{
														OFFSET -2.076401 0.000000 0.000000
														CHANNELS 3 Xrotation Yrotation Zrotation
														End Site
														{
															OFFSET 0.000000 0.000000 0.000000
														}
													}
												}
											}
										}
									}
								}
							}
						}
					}
				}
			}
		}
	}
	JOINT LeftUpLeg
	{
		OFFSET 10.205400 -3.823500 0.155100
		CHANNELS 3 Xrotation Yrotation Zrotation
		JOINT LeftLeg
		{
			OFFSET 0.708757 -12.982077 0.567790
			CHANNELS 3 Xrotation Yrotation Zrotation
			JOINT LeftFoot
			{
				OFFSET -0.708756 -10.717838 -2.184338
				CHANNELS 3 Xrotation Yrotation Zrotation
				JOINT LeftToeBase
				{
					OFFSET 0.108149 -7.191104 7.560241
					CHANNELS 3 Xrotation Yrotation Zrotation
					JOINT LeftToe_End
					{
						OFFSET 0.070230 0.081724 4.490308
						CHANNELS 3 Xrotation Yrotation Zrotation
						End Site
						{
							OFFSET 0.000000 0.000000 0.000000
						}
					}
				}
			}
		}
	}
	JOINT RightUpLeg
	{
		OFFSET -10.205400 -3.823500 0.005500
		CHANNELS 3 Xrotation Yrotation Zrotation
		JOINT RightLeg
		{
			OFFSET -0.708756 -12.982134 0.610632
			CHANNELS 3 Xrotation Yrotation Zrotation
			JOINT RightFoot
			{
				OFFSET 0.708754 -10.717769 -1.945823
				CHANNELS 3 Xrotation Yrotation Zrotation
				JOINT RightToeBase
				{
					OFFSET -0.108140 -7.191069 7.372968
					CHANNELS 3 Xrotation Yrotation Zrotation
					JOINT RightToe_End
					{
						OFFSET -0.070227 0.081735 4.479403
						CHANNELS 3 Xrotation Yrotation Zrotation
						End Site
						{
							OFFSET 0.000000 0.000000 0.000000
						}
					}
				}
			}
		}
	}
}
MOTION
Frames: 6
Frame Time: 0.016667
1.405993 29.495949 -3.710040 4.981601 -63.992063 6.689083 6.022572 -0.227933 -10.406071 2.022904 1.037180 -3.225561 0.000000 0.000000 0.000000 1.954056 1.061959 -3.259240 -0.427864 1.561243 3.150431 -6.501611 52.691126 -2.930362 -0.000001 -0.000000 0.000000 8.323269 13.077825 -7.024620 0.000000 0.000000 0.000000 9.541083 6.100880 -50.685621 -17.718194 -52.472597 -11.271226 -68.344321 2.082889 12.151122 40.109893 -15.297213 -0.360546 5.639844 28.097954 11.338782 1.088532 40.896260 22.734073 -0.000000 0.000003 0.000002 6.882195 2.840059 -61.140507 8.247956 7.640081 -89.897843 2.146076 8.173386 -41.827781 -0.000000 0.000002 0.000000 -2.345585 4.688890 -62.655306 8.754118 9.897165 -87.051314 1.995378 4.929240 -37.483310 0.000001 -0.000001 0.000000 -9.042548 10.045745 -60.766240 8.524058 9.508863 -66.892981 6.576532 9.896785 -70.385181 -0.000000 0.000001 -0.000001 -1.250373 0.958176 0.165823 0.000000 0.000000 0.000000 14.011439 15.962897 54.635906 -3.654954 37.198740 3.123708 -40.713887 8.548929 -33.022267 -1.061794 -5.152526 8.081558 1.452043 -24.614583 -6.362820 -3.138366 5.616695 2.809226 -0.000000 0.000001 0.000002 0.188949 0.143009 1.399182 -0.095025 -0.785867 10.671228 -0.179608 -2.788604 3.080038 -0.000000 -0.000001 -0.000001 0.348258 -5.918447 2.583768 1.609627 -4.842100 28.629257 0.017219 -0.456563 8.215509 -0.000003 -0.000001 0.000001 0.965519 -11.985685 1.668190 1.794838 -3.771878 26.865470 1.656437 -4.624057 23.386267 0.000000 -0.000002 -0.000000 -41.512978 6.072255 43.371534 71.577241 -5.416007 0.276526 -9.319728 8.454531 -22.800015 2.074135 -0.000525 0.000008 0.000000 0.000002 0.000001 -33.641557 -13.337532 -41.289542 52.459869 12.901251 0.806586 -22.639482 -3.301515 20.932460 0.000270 -0.000209 0.000015 0.000000 -0.000000 -0.000000 
1.365045 29.181095 -3.380555 4.597480 -66.183468 6.290504 6.571318 0.208117 -10.494455 2.213360 1.252821 -3.503125 0.000000 0.000000 0.000000 2.134167 1.287671 -3.544562 -0.726363 1.472292 3.093045 -7.529527 54.155877 -2.182894 0.000000 -0.000000 -0.000001 7.748754 12.716416 -7.899200 0.000000 0.000000 0.000000 3.768031 9.179794 -48.813835 -14.713860 -50.244518 -8.593118 -62.145282 -0.745669 11.047933 40.109900 -15.297214 -0.360507 5.639844 28.097926 11.338773 1.088589 40.896270 22.734049 0.000001 0.000003 0.000002 6.882170 2.840054 -61.140486 8.247967 7.640108 -89.897789 2.146095 8.173406 -41.827795 0.000000 0.000001 0.000000 -2.345614 4.688888 -62.655265 8.754097 9.897174 -87.051260 1.995391 4.929267 -37.483344 0.000000 0.000000 0.000000 -9.042526 10.045749 -60.766260 8.524049 9.508831 -66.892960 6.576573 9.896763 -70.385209 0.000001 -0.000001 -0.000000 -1.130647 1.066998 0.184847 0.000000 0.000000 0.000000 14.688272 15.673577 54.960015 -0.682686 33.923436 1.183338 -47.488765 7.229303 -35.346195 -1.746940 -5.633437 9.467137 1.769606 -24.313725 -7.223179 -3.576686 7.904294 3.616481 0.000003 -0.000002 -0.000003 0.055243 0.373339 0.873918 -0.045541 -0.390815 7.572028 -0.096368 -2.347366 -0.186925 -0.000000 -0.000000 0.000001 0.374759 -5.832929 1.407341 1.498670 -4.485171 26.058312 -0.006505 0.218699 3.995376 -0.000000 0.000000 0.000000 1.026406 -11.929864 2.279483 1.646417 -3.560646 25.559934 1.463197 -4.272851 21.169039 0.000001 -0.000001 0.000001 -39.855414 3.751040 42.771618 69.043070 -6.592021 0.219679 -12.648632 7.767283 -22.728616 1.978066 -0.000532 -0.000003 0.000001 -0.000003 -0.000001 -34.279934 -10.787928 -41.041674 53.926785 13.445705 0.567376 -22.645832 -3.293536 21.462223 0.000277 -0.000145 0.000020 0.000000 -0.000000 0.000000 
1.309824 28.893074 -3.035576 4.505121 -68.019982 6.237184 7.429959 0.378516 -10.367829 2.596585 1.518475 -3.801017 0.000000 0.000000 0.000000 2.492151 1.563040 -3.857253 -0.932593 1.253285 2.928711 -9.210470 55.518107 -1.362797 -0.000001 -0.000000 -0.000000 7.224904 11.907275 -8.568570 0.000000 0.000000 0.000000 -2.264324 11.705504 -47.207563 -12.391275 -47.836347 -6.593940 -56.577189 -1.496996 9.008527 40.109934 -15.297201 -0.360493 5.639833 28.097935 11.338824 1.088562 40.896256 22.734032 -0.000002 0.000006 -0.000000 6.882211 2.840044 -61.140493 8.247943 7.640079 -89.897843 2.146052 8.173424 -41.827764 0.000000 -0.000002 0.000000 -2.345574 4.688853 -62.655272 8.754096 9.897184 -87.051307 1.995395 4.929251 -37.483337 -0.000000 0.000004 0.000000 -9.042545 10.045753 -60.766267 8.524096 9.508847 -66.892981 6.576536 9.896743 -70.385188 -0.000000 -0.000002 0.000001 -1.065456 1.265492 0.198029 0.000000 0.000000 0.000000 14.656630 14.472741 55.165997 -4.528768 30.845927 3.374044 -47.603977 6.503103 -36.543298 -2.346131 -6.100513 10.731422 2.076106 -24.043439 -8.030817 -4.045031 10.085871 4.402674 0.000003 -0.000001 0.000003 -0.054791 0.532065 0.738693 0.019773 -0.087314 5.078579 -0.004013 -2.004438 -2.834055 -0.000000 0.000001 -0.000000 0.381867 -5.810072 1.088486 1.432680 -4.204270 24.052147 0.015195 0.822420 0.193464 -0.000001 -0.000001 0.000001 1.176589 -11.785466 3.841123 1.607186 -3.502561 25.206263 1.319754 -3.995392 19.486854 0.000000 -0.000001 0.000001 -39.101983 2.683262 42.589457 66.212605 -7.107085 0.230830 -14.922182 5.678297 -21.813075 2.145222 -0.000533 -0.000021 0.000001 -0.000006 0.000002 -34.721192 -8.362780 -40.896372 55.051414 13.808211 0.333619 -22.628190 -3.449690 22.242526 0.000331 -0.000183 0.000001 0.000000 -0.000000 -0.000000 
1.264867 28.610298 -2.684853 4.586282 -69.055289 6.332531 8.346443 0.001937 -10.149253 3.018320 1.678066 -4.067148 0.000000 0.000000 0.000000 2.881017 1.725165 -4.151147 -0.981795 1.071892 2.832518 -11.175558 56.782306 -0.649285 0.000001 0.000000 0.000000 6.677913 10.753163 -8.549248 0.000000 0.000000 0.000000 -8.021134 14.587826 -46.182707 -13.712506 -45.464625 -7.520422 -48.869942 -1.339814 7.345923 40.109927 -15.297235 -0.360530 5.639832 28.097954 11.338840 1.088547 40.896277 22.734032 -0.000006 0.000003 -0.000003 6.882198 2.840021 -61.140507 8.247955 7.640122 -89.897857 2.146076 8.173394 -41.827757 0.000000 0.000001 0.000000 -2.345562 4.688845 -62.655279 8.754078 9.897151 -87.051307 1.995390 4.929257 -37.483381 -0.000000 -0.000000 0.000000 -9.042545 10.045707 -60.766212 8.524070 9.508868 -66.892967 6.576539 9.896745 -70.385195 -0.000000 -0.000002 0.000001 -0.941222 1.430440 0.218089 0.000000 0.000000 0.000000 14.222969 13.758807 55.030083 -5.122339 28.405616 3.551377 -49.977771 5.601614 -36.818244 -2.731568 -6.426716 11.574426 2.364090 -23.806192 -8.771063 -4.529251 12.124784 5.155770 0.000002 0.000001 -0.000004 -0.124221 0.615514 0.793037 0.070675 0.090707 3.555010 0.063435 -1.801159 -4.460274 -0.000001 -0.000000 0.000002 0.372806 -5.839089 1.492313 1.402478 -4.036301 22.855985 0.067458 1.336859 -3.089698 0.000001 0.000000 0.000001 1.383454 -11.568629 6.136981 1.656975 -3.576020 25.654151 1.236969 -3.828887 18.507562 0.000000 -0.000001 -0.000001 -39.419112 1.855516 42.076469 63.553858 -9.213068 0.146548 -17.195039 3.952487 -20.054675 2.838653 -0.000563 -0.000000 0.000000 -0.000005 0.000000 -34.657804 -6.377964 -40.974387 55.889847 13.917616 0.107708 -22.829982 -3.938693 23.343350 -0.001661 -0.000164 -0.000019 0.000000 -0.000000 0.000000 
1.217507 28.352943 -2.365797 4.731799 -69.896768 6.494695 9.330755 -0.178312 -9.937075 3.397626 1.758930 -4.272326 0.000000 0.000000 0.000000 3.242723 1.798973 -4.382676 -0.898295 1.097334 2.897778 -13.021791 57.653961 -0.236434 0.000000 0.000000 -0.000000 6.161472 9.525313 -8.649465 0.000000 0.000000 0.000000 -13.098039 17.120276 -45.158779 -10.163035 -44.135713 -4.830577 -45.143398 -1.467033 5.878703 40.109927 -15.297228 -0.360524 5.639811 28.097926 11.338781 1.088574 40.896270 22.734029 -0.000007 -0.000000 -0.000004 6.882188 2.840046 -61.140486 8.247962 7.640134 -89.897843 2.146091 8.173430 -41.827771 0.000002 0.000001 0.000000 -2.345556 4.688897 -62.655327 8.754082 9.897152 -87.051246 1.995416 4.929247 -37.483337 0.000001 -0.000000 -0.000000 -9.042522 10.045753 -60.766212 8.524054 9.508831 -66.892981 6.576550 9.896766 -70.385168 -0.000001 0.000003 0.000001 -0.733826 1.485816 0.243801 0.000000 0.000000 0.000000 13.715261 13.538959 54.727905 -5.815041 26.602166 3.807483 -51.655280 4.845662 -36.496269 -2.824985 -6.508968 11.782585 2.559028 -23.654238 -9.262975 -5.012430 13.984945 5.861534 0.000003 0.000000 0.000003 -0.141404 0.636179 0.806466 0.083842 0.134275 3.178286 0.080787 -1.751378 -4.862466 0.000001 0.000001 0.000000 0.350489 -5.911157 2.483815 1.395584 -3.994660 22.560265 0.133925 1.746541 -5.753048 0.000000 0.000000 -0.000003 1.614282 -11.296919 8.951125 1.782028 -3.754161 26.754411 1.217023 -3.787329 18.265430 -0.000001 0.000000 0.000001 -40.170685 1.212649 41.104738 61.066222 -11.692587 0.045126 -16.668561 1.974553 -17.506985 3.881907 -0.000533 0.000001 0.000000 -0.000001 0.000000 -34.643710 -4.751161 -41.174563 56.577438 14.072899 -0.109748 -23.001666 -4.333866 24.354361 -0.001692 -0.000166 -0.000014 0.000000 -0.000000 0.000000 
1.165747 28.157745 -2.120000 4.939885 -70.549721 6.726508 10.257856 -0.173477 -9.725675 3.657862 1.817572 -4.411803 0.000000 0.000000 0.000000 3.496066 1.835891 -4.543402 -0.667179 1.141252 3.088562 -14.539470 58.276731 -0.034664 0.000001 0.000000 -0.000000 5.693985 8.408611 -8.871604 0.000000 0.000000 0.000000 -17.426376 19.311146 -44.219864 -7.248295 -43.434973 -2.752163 -41.354494 -1.701359 4.824515 40.109951 -15.297237 -0.360524 5.639793 28.097974 11.338830 1.088581 40.896263 22.734052 -0.000003 0.000001 -0.000001 6.882214 2.840030 -61.140507 8.247964 7.640103 -89.897830 2.146082 8.173391 -41.827771 0.000001 0.000000 -0.000000 -2.345540 4.688851 -62.655279 8.754083 9.897121 -87.051260 1.995391 4.929249 -37.483358 0.000001 -0.000003 -0.000001 -9.042554 10.045718 -60.766246 8.524094 9.508873 -66.893001 6.576514 9.896739 -70.385168 -0.000001 0.000001 -0.000002 -0.414398 1.508281 0.281735 0.000000 0.000000 0.000000 13.436158 13.253588 54.325983 -6.606953 25.521565 4.164722 -52.297334 3.942373 -35.246501 -2.679375 -6.381248 11.458737 2.604268 -23.619914 -9.376146 -5.351687 15.204356 6.335436 -0.000001 -0.000001 -0.000004 -0.114648 0.604121 0.785501 0.063473 0.066394 3.764368 0.053888 -1.828805 -4.236893 0.000001 -0.000001 -0.000001 0.317578 -6.018977 3.927854 1.406418 -4.059255 23.020268 0.184281 1.990038 -7.363604 -0.000000 0.000000 0.000003 1.840667 -10.990408 12.068248 1.971069 -4.007686 28.358517 1.248209 -3.851834 18.641997 -0.000001 -0.000000 0.000000 -40.423932 1.147355 39.991468 59.048153 -12.392637 0.046935 -14.560261 0.554825 -15.270906 4.226352 0.004377 -0.585464 0.000000 0.000001 0.000001 -34.798468 -3.685530 -41.450690 57.076944 14.258984 -0.328819 -23.104602 -4.458424 25.111950 -0.001670 -0.000182 -0.000012 0.000000 -0.000000 -0.000000 
